<svg t="1652585573346" class="icon" viewBox="0 0 1024 1024" version="1.1" xmlns="http://www.w3.org/2000/svg" p-id="1688" width="200" height="200"><path d="M655.872 144.896l-47.616 167.936c-7.168 26.112-2.048 53.76 13.824 75.264 15.872 21.504 41.472 34.304 68.096 34.304h230.4c10.24 0 18.432 6.656 18.432 12.8v362.496c0 42.496-39.424 76.8-87.552 76.8H384.512V443.904c0-1.536 0.512-3.584 2.048-6.144 1.024-1.536 2.048-3.072 3.072-4.096l199.168-281.6c4.096-4.608 9.728-7.168 15.872-7.168h51.2m23.04-86.016h-73.728c-31.744 0-62.464 14.336-83.456 40.448L320.512 384c-13.824 16.896-21.504 38.4-21.504 59.904v481.792c0 18.944 15.36 34.816 34.304 34.816h518.144c95.232 0 172.544-73.216 172.544-162.816V435.2c0-54.272-46.592-98.816-103.424-98.816h-230.4l56.32-198.144c0.512-1.536 1.024-3.584 1.024-5.12 2.56-18.432-3.072-36.352-15.36-50.176-13.312-15.36-32.768-24.064-53.248-24.064zM171.008 487.936v386.048H85.504V487.936h85.504m31.744-85.504H53.76C24.064 402.432 0.512 426.496 0.512 456.192v450.56c0 29.696 24.064 53.76 53.248 53.76h149.504c29.696 0 53.248-24.064 53.248-53.76v-450.56c0-29.696-24.064-53.76-53.76-53.76z" p-id="1689" fill="#2c2c2c"></path></svg>